<mxfile host="app.diagrams.net" modified="2024-02-15T20:46:30.517Z" agent="Mozilla/5.0 (Windows NT 10.0; Win64; x64) AppleWebKit/537.36 (KHTML, like Gecko) Chrome/121.0.0.0 Safari/537.36" etag="myAch4R8hIyuA6X6YsSi" version="23.1.1" type="device">
  <diagram name="Page-1" id="KKHNJYZ5hnC8P6Wqpm90">
    <mxGraphModel dx="942" dy="482" grid="1" gridSize="10" guides="1" tooltips="1" connect="1" arrows="1" fold="1" page="1" pageScale="1" pageWidth="827" pageHeight="1169" math="0" shadow="0">
      <root>
        <mxCell id="0" />
        <mxCell id="1" parent="0" />
        <mxCell id="b-kmDHiGNELznbdTNueV-1" value="" style="ellipse;whiteSpace=wrap;html=1;aspect=fixed;fillColor=#00FF0050;" parent="1" vertex="1">
          <mxGeometry x="80" y="40" width="160" height="160" as="geometry" />
        </mxCell>
        <mxCell id="b-kmDHiGNELznbdTNueV-6" value="" style="ellipse;whiteSpace=wrap;html=1;aspect=fixed;fillColor=#0000FF50;shadow=0;" parent="1" vertex="1">
          <mxGeometry x="160" y="40" width="160" height="160" as="geometry" />
        </mxCell>
        <mxCell id="b-kmDHiGNELznbdTNueV-7" value="" style="ellipse;whiteSpace=wrap;html=1;aspect=fixed;fillColor=#FF800050;" parent="1" vertex="1">
          <mxGeometry x="120" y="100" width="160" height="160" as="geometry" />
        </mxCell>
        <mxCell id="b-kmDHiGNELznbdTNueV-8" value="Vérités" style="text;html=1;strokeColor=#006600;fillColor=#33FF3350;align=center;verticalAlign=middle;whiteSpace=wrap;rounded=0;" parent="1" vertex="1">
          <mxGeometry x="20" y="60" width="60" height="30" as="geometry" />
        </mxCell>
        <mxCell id="b-kmDHiGNELznbdTNueV-9" value="Croyances" style="text;html=1;strokeColor=#000066;fillColor=#0000FF50;align=center;verticalAlign=middle;whiteSpace=wrap;rounded=0;" parent="1" vertex="1">
          <mxGeometry x="320" y="60" width="80" height="30" as="geometry" />
        </mxCell>
        <mxCell id="b-kmDHiGNELznbdTNueV-10" value="Démontrable" style="text;html=1;strokeColor=#994C00;fillColor=#FF800050;align=center;verticalAlign=middle;whiteSpace=wrap;rounded=0;" parent="1" vertex="1">
          <mxGeometry x="160" y="280" width="80" height="30" as="geometry" />
        </mxCell>
        <mxCell id="b-kmDHiGNELznbdTNueV-11" value="Erreur" style="text;html=1;strokeColor=none;fillColor=none;align=center;verticalAlign=middle;whiteSpace=wrap;rounded=0;" parent="1" vertex="1">
          <mxGeometry x="222" y="154" width="60" height="30" as="geometry" />
        </mxCell>
        <mxCell id="b-kmDHiGNELznbdTNueV-12" value="&lt;font style=&quot;font-size: 10px;&quot;&gt;Connaissance&lt;/font&gt;" style="text;html=1;strokeColor=none;fillColor=none;align=center;verticalAlign=middle;whiteSpace=wrap;rounded=0;" parent="1" vertex="1">
          <mxGeometry x="170" y="122" width="60" height="30" as="geometry" />
        </mxCell>
        <mxCell id="b-kmDHiGNELznbdTNueV-13" value="Fait" style="text;html=1;strokeColor=none;fillColor=none;align=center;verticalAlign=middle;whiteSpace=wrap;rounded=0;" parent="1" vertex="1">
          <mxGeometry x="119" y="156" width="60" height="30" as="geometry" />
        </mxCell>
        <mxCell id="b-kmDHiGNELznbdTNueV-14" value="Axiome" style="text;html=1;strokeColor=none;fillColor=none;align=center;verticalAlign=middle;whiteSpace=wrap;rounded=0;" parent="1" vertex="1">
          <mxGeometry x="170" y="70" width="60" height="30" as="geometry" />
        </mxCell>
        <mxCell id="b-kmDHiGNELznbdTNueV-15" value="Faux" style="text;html=1;strokeColor=none;fillColor=none;align=center;verticalAlign=middle;whiteSpace=wrap;rounded=0;" parent="1" vertex="1">
          <mxGeometry x="170" y="210" width="60" height="30" as="geometry" />
        </mxCell>
        <mxCell id="b-kmDHiGNELznbdTNueV-16" value="Magie" style="text;html=1;strokeColor=none;fillColor=none;align=center;verticalAlign=middle;whiteSpace=wrap;rounded=0;" parent="1" vertex="1">
          <mxGeometry x="99" y="82" width="60" height="30" as="geometry" />
        </mxCell>
        <mxCell id="b-kmDHiGNELznbdTNueV-17" value="Illusion" style="text;html=1;strokeColor=none;fillColor=none;align=center;verticalAlign=middle;whiteSpace=wrap;rounded=0;" parent="1" vertex="1">
          <mxGeometry x="241" y="81" width="60" height="30" as="geometry" />
        </mxCell>
        <mxCell id="1keNIyI62u-Wij7M2BkR-3" value="" style="endArrow=none;dashed=1;html=1;dashPattern=1 3;strokeWidth=2;rounded=0;exitX=0.5;exitY=0;exitDx=0;exitDy=0;entryX=0.5;entryY=1;entryDx=0;entryDy=0;" edge="1" parent="1" source="b-kmDHiGNELznbdTNueV-10" target="b-kmDHiGNELznbdTNueV-7">
          <mxGeometry width="50" height="50" relative="1" as="geometry">
            <mxPoint x="290" y="240" as="sourcePoint" />
            <mxPoint x="340" y="190" as="targetPoint" />
          </mxGeometry>
        </mxCell>
        <mxCell id="1keNIyI62u-Wij7M2BkR-4" value="" style="endArrow=none;dashed=1;html=1;dashPattern=1 3;strokeWidth=2;rounded=0;exitX=0.5;exitY=1;exitDx=0;exitDy=0;entryX=1;entryY=0.5;entryDx=0;entryDy=0;" edge="1" parent="1" source="b-kmDHiGNELznbdTNueV-9" target="b-kmDHiGNELznbdTNueV-6">
          <mxGeometry width="50" height="50" relative="1" as="geometry">
            <mxPoint x="210" y="290" as="sourcePoint" />
            <mxPoint x="210" y="270" as="targetPoint" />
          </mxGeometry>
        </mxCell>
        <mxCell id="1keNIyI62u-Wij7M2BkR-5" value="" style="endArrow=none;dashed=1;html=1;dashPattern=1 3;strokeWidth=2;rounded=0;exitX=0.5;exitY=1;exitDx=0;exitDy=0;entryX=0;entryY=0.5;entryDx=0;entryDy=0;" edge="1" parent="1" source="b-kmDHiGNELznbdTNueV-8" target="b-kmDHiGNELznbdTNueV-1">
          <mxGeometry width="50" height="50" relative="1" as="geometry">
            <mxPoint x="370" y="100" as="sourcePoint" />
            <mxPoint x="330" y="130" as="targetPoint" />
          </mxGeometry>
        </mxCell>
      </root>
    </mxGraphModel>
  </diagram>
</mxfile>
